<svg width="32" height="32" viewBox="0 0 32 32" fill="none" xmlns="http://www.w3.org/2000/svg">
  <rect width="32" height="32" rx="6" fill="url(#gradient)"/>
  <path d="M16 12C14.3431 12 13 13.3431 13 15C13 16.6569 14.3431 18 16 18C17.6569 18 19 16.6569 19 15C19 13.3431 17.6569 12 16 12Z" fill="white"/>
  <path d="M11 15C11 12.2386 13.2386 10 16 10C18.7614 10 21 12.2386 21 15" stroke="white" stroke-width="2" stroke-linecap="round"/>
  <path d="M8 15C8 10.5817 11.5817 7 16 7C20.4183 7 24 10.5817 24 15" stroke="white" stroke-width="2" stroke-linecap="round"/>
  <circle cx="26" cy="6" r="3" fill="#10b981"/>
  <defs>
    <linearGradient id="gradient" x1="0" y1="0" x2="32" y2="32" gradientUnits="userSpaceOnUse">
      <stop stop-color="#0EA5E9"/>
      <stop offset="1" stop-color="#0284C7"/>
    </linearGradient>
  </defs>
</svg>
